<svg width="24" height="25" viewBox="0 0 24 25" fill="none" xmlns="http://www.w3.org/2000/svg">
<path d="M19.09 14.941V19.381C19.0898 20.0092 18.8401 20.6116 18.3959 21.0558C17.9516 21.5 17.3492 21.7497 16.721 21.75H5.12002C4.80777 21.7499 4.49863 21.688 4.21035 21.568C3.92208 21.4481 3.66035 21.2723 3.44021 21.0509C3.22007 20.8294 3.04586 20.5667 2.92758 20.2777C2.80931 19.9887 2.74931 19.6792 2.75102 19.367V7.77898C2.74916 7.46723 2.80919 7.1582 2.92764 6.86982C3.04608 6.58144 3.22059 6.31944 3.44103 6.09899C3.66148 5.87855 3.92348 5.70404 4.21186 5.5856C4.50025 5.46715 4.80927 5.40712 5.12102 5.40898H9.56002" stroke="#14AE5C" stroke-width="1.5" stroke-linecap="round" stroke-linejoin="round"/>
<path d="M19.09 9.49497L15.005 5.40897M6.83496 16.303V14.138C6.83696 13.781 6.97896 13.438 7.22996 13.185L16.762 3.65297C16.8884 3.52507 17.039 3.42354 17.205 3.35424C17.371 3.28495 17.5491 3.24927 17.729 3.24927C17.9088 3.24927 18.0869 3.28495 18.2529 3.35424C18.4189 3.42354 18.5695 3.52507 18.696 3.65297L20.847 5.80397C20.9749 5.93045 21.0764 6.08104 21.1457 6.24702C21.215 6.41301 21.2507 6.5911 21.2507 6.77097C21.2507 6.95084 21.215 7.12892 21.1457 7.29491C21.0764 7.4609 20.9749 7.61149 20.847 7.73797L11.315 17.27C11.0615 17.5217 10.7192 17.6636 10.362 17.665H8.19696C8.01803 17.6652 7.8408 17.6302 7.67544 17.5618C7.51007 17.4935 7.35982 17.3932 7.2333 17.2666C7.10677 17.1401 7.00646 16.9899 6.9381 16.8245C6.86975 16.6591 6.8347 16.4819 6.83496 16.303Z" stroke="#14AE5C" stroke-width="1.5" stroke-linecap="round" stroke-linejoin="round"/>
</svg>
