<svg width="24" height="25" viewBox="0 0 24 25" fill="none" xmlns="http://www.w3.org/2000/svg">
<path fill-rule="evenodd" clip-rule="evenodd" d="M21.7501 12.5L22.3726 12.188V12.185L22.3681 12.1805L22.3591 12.1625L22.3276 12.1025L22.2076 11.8865C22.0611 11.6339 21.9055 11.3868 21.7411 11.1455C21.1923 10.3399 20.5614 9.59345 19.8586 8.91802C18.1696 7.29802 15.5701 5.64502 12.0001 5.64502C8.43308 5.64502 5.83208 7.29652 4.14308 8.91802C3.44027 9.59345 2.80939 10.3399 2.26058 11.1455C2.03788 11.4741 1.83163 11.8135 1.64258 12.1625L1.63358 12.1805L1.63058 12.185V12.1865C1.63058 12.1865 1.62908 12.188 2.25158 12.5L1.62908 12.1865C1.58095 12.2838 1.55591 12.3908 1.55591 12.4993C1.55591 12.6078 1.58095 12.7148 1.62908 12.812L1.62758 12.815L1.63208 12.8195L1.64108 12.8375C1.68785 12.9312 1.73788 13.0233 1.79108 13.1135C2.43697 14.2046 3.2271 15.2036 4.14008 16.0835C5.83058 17.7035 8.43008 19.3535 12.0001 19.3535C15.5686 19.3535 18.1696 17.7035 19.8601 16.082C20.5616 15.4058 21.1919 14.6594 21.7411 13.8545C21.9514 13.5448 22.1471 13.2255 22.3276 12.8975L22.3591 12.8375L22.3681 12.8195L22.3711 12.815V12.8135C22.3711 12.8135 22.3726 12.812 21.7501 12.5ZM21.7501 12.5L22.3726 12.8135C22.4207 12.7163 22.4457 12.6093 22.4457 12.5008C22.4457 12.3923 22.4207 12.2853 22.3726 12.188L21.7501 12.5ZM11.9101 10.196C11.299 10.196 10.713 10.4388 10.2809 10.8708C9.84882 11.3029 9.60608 11.889 9.60608 12.5C9.60608 13.1111 9.84882 13.6971 10.2809 14.1292C10.713 14.5613 11.299 14.804 11.9101 14.804C12.5211 14.804 13.1072 14.5613 13.5392 14.1292C13.9713 13.6971 14.2141 13.1111 14.2141 12.5C14.2141 11.889 13.9713 11.3029 13.5392 10.8708C13.1072 10.4388 12.5211 10.196 11.9101 10.196ZM8.21708 12.5C8.21708 11.5198 8.60647 10.5797 9.29961 9.88655C9.99274 9.19342 10.9328 8.80402 11.9131 8.80402C12.8933 8.80402 13.8334 9.19342 14.5265 9.88655C15.2197 10.5797 15.6091 11.5198 15.6091 12.5C15.6091 13.4803 15.2197 14.4204 14.5265 15.1135C13.8334 15.8066 12.8933 16.196 11.9131 16.196C10.9328 16.196 9.99274 15.8066 9.29961 15.1135C8.60647 14.4204 8.21708 13.4803 8.21708 12.5Z" fill="#0D99FF"/>
</svg>
