<svg width="20" height="20" viewBox="0 0 20 20" fill="none" xmlns="http://www.w3.org/2000/svg">
  <path d="M9.99935 3.33337C5.83335 3.33337 2.26669 6.16671 1.66669 10C2.26669 13.8334 5.83335 16.6667 9.99935 16.6667C14.1654 16.6667 17.732 13.8334 18.332 10C17.732 6.16671 14.1654 3.33337 9.99935 3.33337ZM9.99935 14.1667C8.15935 14.1667 6.66669 12.674 6.66669 10.8334C6.66669 8.99271 8.15935 7.50004 9.99935 7.50004C11.8394 7.50004 13.332 8.99271 13.332 10.8334C13.332 12.674 11.8394 14.1667 9.99935 14.1667ZM9.99935 8.83337C9.07935 8.83337 8.33202 9.58004 8.33202 10.5C8.33202 11.42 9.07935 12.1667 9.99935 12.1667C10.9194 12.1667 11.6667 11.42 11.6667 10.5C11.6667 9.58004 10.9194 8.83337 9.99935 8.83337ZM1.66669 1.66671L18.3334 18.3334" stroke="#3D3D3D" stroke-width="1.5" stroke-linecap="round" stroke-linejoin="round"/>
</svg>
