<svg width="20" height="20" viewBox="0 0 20 20" fill="none" xmlns="http://www.w3.org/2000/svg">
<path d="M12.9824 10C12.9824 11.65 11.649 12.9833 9.99902 12.9833C8.34902 12.9833 7.01569 11.65 7.01569 10C7.01569 8.35 8.34902 7.01666 9.99902 7.01666C11.649 7.01666 12.9824 8.35 12.9824 10Z" stroke="#3D3D3D" stroke-width="1.5" stroke-linecap="round" stroke-linejoin="round"/>
<path d="M9.99902 16.8917C12.9407 16.8917 15.6823 15.1583 17.5907 12.1583C18.3407 10.9833 18.3407 9.00834 17.5907 7.83334C15.6823 4.83334 12.9407 3.10001 9.99902 3.10001C7.05735 3.10001 4.31568 4.83334 2.40735 7.83334C1.65735 9.00834 1.65735 10.9833 2.40735 12.1583C4.31568 15.1583 7.05735 16.8917 9.99902 16.8917Z" stroke="#3D3D3D" stroke-width="1.5" stroke-linecap="round" stroke-linejoin="round"/>
</svg>
