<svg width="289" height="69" viewBox="0 0 289 69" fill="none" xmlns="http://www.w3.org/2000/svg">
<path d="M73.056 67.192L51.072 14.008L51.264 9.4L42.816 2.872V0.759995H73.632V2.872L64.416 9.976L63.552 2.10399L85.728 55.864H81.888L95.616 2.008L96.192 10.264L86.592 2.872V0.759995H111.072V2.872L103.776 11.224L108.768 2.008L81.792 67.192H73.056ZM29.472 67.192L2.496 2.10399L7.296 11.32L0.192 2.872V0.759995H29.952V2.872L20.736 10.072L19.872 2.10399L42.048 55.864H38.304L52.32 2.008H65.088L38.112 67.192H29.472ZM131.82 68.44C126.956 68.44 122.636 67.448 118.86 65.464C115.148 63.48 112.236 60.728 110.124 57.208C108.012 53.624 106.956 49.56 106.956 45.016C106.956 39.704 108.076 35.032 110.316 31C112.62 26.904 115.788 23.704 119.82 21.4C123.852 19.096 128.492 17.944 133.74 17.944C137.9 17.944 141.548 18.968 144.684 21.016C147.82 23 150.284 25.88 152.076 29.656C153.868 33.432 154.764 37.912 154.764 43.096H118.092V39.64L138.924 35.992C138.924 32.216 138.252 29.368 136.908 27.448C135.628 25.464 133.9 24.472 131.724 24.472C129.996 24.472 128.46 25.176 127.116 26.584C125.836 27.928 124.844 29.912 124.14 32.536C123.436 35.096 123.084 38.104 123.084 41.56C123.084 46.808 124.364 50.968 126.924 54.04C129.548 57.112 133.068 58.648 137.484 58.648C142.796 58.648 147.116 56.952 150.444 53.56L153.42 55.864C151.564 59.768 148.716 62.84 144.876 65.08C141.1 67.32 136.748 68.44 131.82 68.44ZM175.019 44.92L175.595 39.448L209.483 2.008L208.811 13.912L198.827 2.872V0.759995H229.739V2.872L214.187 12.088L227.147 2.68L175.019 44.92ZM158.123 67V64.888L164.939 58.456V9.304L158.123 2.872V0.759995H188.651V2.872L181.835 9.304V58.456L188.651 64.888V67H158.123ZM201.227 67V64.888L208.235 55.384L210.059 65.656L186.539 31.672L199.595 22.072L229.643 65.752L219.659 53.752L231.659 64.888V67H201.227ZM249.625 68.44C244.825 68.44 241.145 67 238.585 64.12C236.025 61.24 234.745 57.112 234.745 51.736V28.312L238.873 37.048L228.121 26.68V24.568L247.321 18.712H250.297V47.992C250.297 51.448 250.905 53.976 252.121 55.576C253.401 57.112 255.449 57.88 258.265 57.88C260.121 57.88 261.913 57.528 263.641 56.824C265.369 56.056 266.969 55 268.441 53.656V59.224H267.289C264.665 62.296 261.881 64.6 258.937 66.136C255.993 67.672 252.889 68.44 249.625 68.44ZM271.993 68.248L267.865 59.416H266.905V28.216L271.033 36.856L260.281 26.584V24.472L279.481 18.52H282.457V57.4L278.425 50.296L288.313 59.896V62.008L274.393 68.248H271.993Z" fill="#EB2F59"/>
</svg>
