<svg width="24" height="25" viewBox="0 0 24 25" fill="none" xmlns="http://www.w3.org/2000/svg">
<path d="M18.2001 8.51315H5.79931C5.72446 8.51299 5.6503 8.52761 5.58111 8.55617C5.51191 8.58473 5.44904 8.62667 5.39608 8.67957C5.34313 8.73248 5.30114 8.79533 5.27252 8.8645C5.2439 8.93367 5.22922 9.00781 5.22931 9.08267V21.0555C5.22928 21.1304 5.244 21.2046 5.27263 21.2738C5.30126 21.343 5.34323 21.4059 5.39616 21.4588C5.44909 21.5118 5.51194 21.5538 5.58111 21.5825C5.65028 21.6112 5.72443 21.626 5.79931 21.626H18.2001C18.275 21.6261 18.3492 21.6113 18.4184 21.5827C18.4876 21.554 18.5505 21.512 18.6034 21.459C18.6563 21.406 18.6983 21.3431 18.7269 21.2739C18.7555 21.2046 18.7702 21.1305 18.7701 21.0555V9.08243C18.7702 9.00759 18.7555 8.93348 18.7268 8.86433C18.6982 8.79519 18.6562 8.73237 18.6033 8.67949C18.5503 8.62661 18.4874 8.58469 18.4183 8.55615C18.3491 8.5276 18.275 8.51299 18.2001 8.51315ZM18.9609 4.66451H14.2564V3.94475C14.2566 3.86988 14.2419 3.79572 14.2134 3.72651C14.1848 3.6573 14.1429 3.5944 14.09 3.54142C14.0371 3.48843 13.9742 3.44639 13.9051 3.41771C13.8359 3.38903 13.7618 3.37427 13.6869 3.37427H10.313C10.2381 3.37427 10.1639 3.38903 10.0948 3.4177C10.0256 3.44638 9.96271 3.48841 9.90977 3.54139C9.85684 3.59437 9.81486 3.65726 9.78624 3.72647C9.75763 3.79568 9.74293 3.86985 9.74299 3.94475V4.66451H5.03899C4.96414 4.66435 4.88998 4.67897 4.82079 4.70753C4.75159 4.73609 4.68872 4.77802 4.63576 4.83093C4.58281 4.88384 4.54082 4.94669 4.5122 5.01586C4.48358 5.08503 4.4689 5.15917 4.46899 5.23403V6.89771C4.4689 6.97256 4.48358 7.04671 4.5122 7.11588C4.54082 7.18505 4.58281 7.24789 4.63576 7.3008C4.68872 7.35371 4.75159 7.39565 4.82079 7.42421C4.88998 7.45277 4.96414 7.46739 5.03899 7.46723H18.9609C19.0358 7.46739 19.1099 7.45277 19.1791 7.42421C19.2483 7.39565 19.3112 7.35371 19.3641 7.3008C19.4171 7.24789 19.4591 7.18505 19.4877 7.11588C19.5163 7.04671 19.531 6.97256 19.5309 6.89771V5.23403C19.531 5.15917 19.5163 5.08503 19.4877 5.01586C19.4591 4.94669 19.4171 4.88384 19.3641 4.83093C19.3112 4.77802 19.2483 4.73609 19.1791 4.70753C19.1099 4.67897 19.0358 4.66435 18.9609 4.66451Z" fill="#F24822"/>
</svg>
